<svg xmlns="http://www.w3.org/2000/svg" width="77.119" height="49.603" viewBox="0 0 77.119 49.603"><path d="M13.194,3.169V11.6H16.22c2.017,0,3.256-.017,4.314,0v8.383c-1.128.006-2.3,0-4.314,0H4.812c.022-2.695-.115-6.063,0-8.383V-21.191c-.113-2.211-.059-6.232,0-8.383H16.22c2.017,0,3.394-.015,4.314,0v8.383c-1.194-.08-2.3,0-4.314,0H13.194V-8.824L31.127-29.614c4.519.01,10.772.041,10.772.041v8.383H34.463L24.545-8.824S33.186,6.724,35.095,11.6h6.8v8.383H31.127L18.955-3.053ZM56.186,11.6H75.2L45.473-19.8H51.23L75.2,5.027,81.865,11.6v8.383H45.473V11.6L71.029-21.191H45.473v-8.423l36.392.041V-21.4Z" transform="translate(-4.746 29.614)" fill="#e3e6e4"/></svg>